PathFileType	4	(X/Y/Z)	T1_P1_Vision_NoMovement_1_0-649.trc
DataRate	CameraRate	NumFrames	NumMarkers	Units	OrigDataRate	OrigDataStartFrame	OrigNumFrames
60	60	5	27	m	60	81	649
Frame#	Time	RHip			RKnee			RAnkle			RBigToe			RSmallToe			RHeel			LHip			LKnee			LAnkle			LBigToe			LSmallToe			LHeel			Neck			Head			Nose			RShoulder			RElbow			RWrist			RThumb			RIndex			RPinky			LShoulder			LElbow			LWrist			LThumb			LIndex			LPinky		
		X1	Y1	Z1	X2	Y2	Z2	X3	Y3	Z3	X4	Y4	Z4	X5	Y5	Z5	X6	Y6	Z6	X7	Y7	Z7	X8	Y8	Z8	X9	Y9	Z9	X10	Y10	Z10	X11	Y11	Z11	X12	Y12	Z12	X13	Y13	Z13	X14	Y14	Z14	X15	Y15	Z15	X16	Y16	Z16	X17	Y17	Z17	X18	Y18	Z18	X19	Y19	Z19	X20	Y20	Z20	X21	Y21	Z21	X22	Y22	Z22	X23	Y23	Z23	X24	Y24	Z24	X25	Y25	Z25	X26	Y26	Z26	X27	Y27	Z27
82	1.3666666666666667	-66.40667375481405	3789.150111050894	-546.3390802496898	284.3286918044415	3974.863058567695	-526.2210580491367	638.8295933029555	4151.905189180792	-532.1005475423203	694.9741518711241	4013.9503391921994	-455.89928424418724	689.8625967611291	3966.340277152844	-504.27484338197917	675.9460884486782	4164.781310672799	-525.8069325668549	-102.34590893097347	3905.5271910268048	-363.9366136107017	241.58202096268866	4003.7978352246505	-375.61082630947084	619.6480282761884	4249.547212842307	-448.13426448344023	677.4493934999017	3998.5464051625318	-353.8520180163123	680.3191606728926	4122.313314724779	-341.9819521257035	675.9215318422852	4318.063373142132	-492.24572473340857	-679.854522493324	3684.062889991464	-490.8023972158421	-922.2759200219961	3562.730049096234	-436.409386923557	-785.4075646934524	3559.0425303391776	-389.46398981109974	-558.8646545199697	3653.0489071344987	-644.8057889662498	-291.47555598172966	3722.002889711168	-698.1081138251537	-26.714612313908134	3642.53225196702	-608.2709216324756	86.85262802068166	3768.716666367782	-568.3852650767636	112.51573555845393	3720.8582556257106	-557.338321220268	99.74925627391667	3652.262094294338	-580.4214050624928	-612.6933333814343	3774.887961974066	-370.98407338488323	-392.2357349869444	3981.1349239529804	-346.00191385271853	-133.41408244484833	3963.717876109941	-245.266952975012	2.3754580924772606	3880.431299341962	-241.76643096894165	19.966374593090006	3959.3341142145973	-216.44200216647587	-6.99097025286129	4000.969946282724	-220.76356956404567
83	1.3833333333333333	-66.40313632314779	3788.9604513134577	-546.198042177304	284.3381115462696	3975.107741176932	-526.213610894394	638.743514138582	4152.4327162580375	-532.3029667685358	694.8533817386303	4014.0821951302773	-455.8377535487893	689.7753830618148	3966.7880641025877	-504.3321012897246	676.5592577078197	4164.693050949765	-531.5509094944141	-102.8530968326754	3886.449680362381	-350.6008230837036	240.9938888712594	4003.8827731162123	-370.1963651003358	619.5569964051914	4250.060114389824	-448.431956604631	670.8245872373294	3997.1210284217354	-350.17678530639193	679.957769379961	4122.6311298494165	-342.07641812520825	675.8937808810007	4318.767792772715	-492.6618157659216	-679.8276362870811	3684.0123480408624	-490.84414781966854	-922.2806767026693	3562.6217731810407	-436.34307947190655	-794.0208365233345	3555.394216371789	-388.9165276523221	-558.8120529579566	3652.8936014962746	-644.7808163576526	-291.45614008435587	3721.893329367891	-698.1287312521342	-26.675315073068163	3642.425438491439	-608.1928104688636	81.8423139071309	3766.289509632377	-568.5318368814217	112.53491051862724	3720.2132553642537	-556.9887583072432	96.13137933428096	3651.612168497179	-585.5104451946842	-612.6974762632566	3774.7674676803617	-370.8954293376303	-392.25625310711433	3981.1846545567323	-346.0454975400728	-138.86817586029233	3961.482675240886	-245.85782086077947	2.228863613209244	3880.0605970485	-241.67166237288316	19.86287975858493	3959.0146016383947	-216.4465013912673	-7.041268999091912	3974.617742895001	-216.3325602597787
84	1.4	-66.298582490191	3788.794583606035	-546.1527181011614	282.32889921823886	3945.4558298897964	-519.2775527108749	638.6936643331325	4151.827761775069	-531.9605554360692	694.5996014944382	4013.65636028887	-455.57099154693924	688.1566705093311	3965.5303828555284	-497.27160201486873	676.42739488342	4164.179192995932	-531.2730923837785	-102.80184108365877	3886.6188040962456	-350.58762325511583	241.1147849935431	4003.9299683706945	-370.1264240528766	619.5130140805194	4250.122068856211	-448.4936537813043	670.5687959779021	3997.025170720695	-349.7991313981852	679.560309956452	4122.853153347372	-341.95323997545836	675.5267624815625	4318.822942429726	-492.67685915015284	-679.8575570726529	3684.1630735753984	-490.9653947222428	-926.7960750604177	3561.1652932142315	-436.2810857454032	-793.9874181729109	3555.226650215271	-388.89945646845285	-558.8555324721447	3653.0376560212762	-644.8853822655147	-291.5223111026915	3722.059785299456	-698.1950797770622	-26.689854347641916	3642.448754799986	-608.1879354846492	81.82883211637755	3766.320606668348	-568.5592942286177	112.5897317230343	3720.0274833977464	-556.8289872767912	100.35956764171142	3651.5279053925055	-585.0330708831696	-612.7078020592725	3775.025791957884	-371.01790186936125	-392.21068270674203	3981.287564015833	-346.01555595718287	-128.54804990375231	3967.318398793851	-246.58434195266415	2.2684369978734464	3880.357785335865	-241.64045000311057	19.82661195682479	3959.3274517541277	-216.47685202702425	-7.080317088402484	4001.3464135591544	-220.9069587151365
85	1.4166666666666667	-66.2956245603007	3788.28783198009	-545.8485641190929	282.47894548526983	3945.464880820814	-519.3716130273359	638.9452892542965	4152.680885286105	-532.0223904718174	694.9571375429547	4015.2432413936936	-458.48972537939426	688.403190528308	3965.726738542006	-497.1142734271171	681.2530697005525	4194.749695937875	-537.470624046429	-103.11327692546939	3884.716079564843	-343.9689216818729	235.973872195728	4001.438220111653	-370.63652417395156	620.9090038763461	4252.4022138349355	-455.88708407588445	670.3536029127607	3997.0371775569956	-350.0955333183906	682.0451347139943	4127.546534186918	-344.5607992473807	672.2952776658394	4322.379866270367	-499.4738127085791	-674.3692160206391	3685.907013911099	-490.55149371484464	-922.2293681208936	3562.881274205793	-436.43254517548564	-785.3421654520967	3559.2015933754537	-389.5905415993281	-558.9331829222834	3653.087876830822	-644.928216908634	-291.1708760582279	3721.1418402568524	-703.6569336038908	-26.679234047633084	3642.6823027213027	-608.3738951425036	81.9563518734026	3766.514527300029	-568.8446746519942	113.15053074587746	3719.4510959077966	-562.094648293242	96.15032721233406	3651.722242311294	-585.7726830132467	-616.4275397564027	3800.3719500251245	-376.1607754124192	-391.895970346693	3980.913783463261	-346.08842109129836	-128.2827092291869	3967.574353774517	-246.59002459660428	2.3397288008345876	3880.2025461735675	-241.7372220323908	19.96230358559665	3959.0418564465035	-216.4502778860727	-6.765396666696558	4000.8006939589654	-220.7567229394581
86	1.4333333333333333	-67.0721925975849	3770.1078260697996	-531.7632893671781	282.4321239008855	3945.617943109076	-519.1962454153261	638.8372937763704	4152.0057394306505	-531.9713092192205	694.8406909249835	4014.6136111268675	-458.2081422963882	688.1402261479009	3965.2964357729593	-497.0807524560409	676.7443192992182	4164.113434620267	-531.2319546567371	-103.16368508764344	3884.7595321575363	-343.99530440532567	235.9494407822081	4001.057547346379	-370.43373724080567	627.3272711760405	4257.254085261174	-458.11405866010983	670.5944691250218	3998.673695326485	-345.7339153734005	682.3931403455409	4128.100852977185	-344.68821545095153	672.4344598077886	4322.871843144115	-499.69921417931585	-674.3523232620498	3685.890966052127	-490.4732916863796	-922.1199272045533	3562.867375805921	-436.4553812149584	-788.4519805925412	3576.3098620433575	-402.5168426528969	-560.6575198574513	3670.2734187610513	-659.5646609471922	-289.6312937278127	3694.67957663777	-690.2143598696879	-26.655444857837914	3642.7026382116164	-608.3590709401051	86.86788850912005	3768.475294651509	-568.2688976105616	112.51866275796526	3720.744493348162	-557.3651469762874	105.45926081536327	3653.5951116062133	-584.6183438264452	-612.5533553505902	3775.0805401383186	-370.8859581645372	-391.94234293378656	3980.876306643915	-346.1289711404067	-128.33245615957222	3967.5550541537077	-246.6673702981076	3.552461620432394	3898.8027994986223	-254.40428892328822	19.98563982280845	3959.104133101312	-216.5653068055802	-6.830358866258629	3974.949337016655	-216.47724541863292
